# xmcd CD database file
#
# Track frame offsets:
#	150
#	17773
#	33805
#	58104
#	72068
#	88024
#	107670
#	136029
#	148997
#	173606
#	190238
#
# Disc length: 2780 seconds
#
# Revision: 0
# Processed by: cddbd v1.5.2PL0 Copyright (c) Steve Scherf et al.
# Submitted via: CDex 1.70beta2
#
DISCID=8f0ada0b
DTITLE=Viaggio - Ode
DYEAR=2012
DGENRE=Jazz
TTITLE0=Galliano
TTITLE1=Les Histoires Macabres Du Monde
TTITLE2=Madro
TTITLE3=Balkan Boggie
TTITLE4=Mezzo
TTITLE5=Pimienta Verde
TTITLE6=Blanche Fleur
TTITLE7=Trip To Skye
TTITLE8=Ode To A Drop Out
TTITLE9=Churros
TTITLE10=Sanlucar
EXTD=YEAR: 2012
EXTT0=
EXTT1=
EXTT2=
EXTT3=
EXTT4=
EXTT5=
EXTT6=
EXTT7=
EXTT8=
EXTT9=
EXTT10=
PLAYORDER=
